<svg xmlns="http://www.w3.org/2000/svg" width="16px" height="16px" viewBox="0 0 16 16">
    <path d="M 6.75 14.25 L 9.25 14.25 C 9.25 14.941406 8.691406 15.5 8 15.5 C 7.308594 15.5 6.75 14.941406 6.75 14.25 Z M 13.25 11.75 L 13.25 7.25 C 13.25 4.734375 11.46875 2.574219 9 2.09375 L 9 1.5 C 9 0.949219 8.550781 0.5 8 0.5 C 7.449219 0.5 7 0.949219 7 1.5 L 7 2.09375 C 4.53125 2.574219 2.75 4.734375 2.75 7.25 L 2.75 11.75 C 1.644531 11.75 0.75 12.644531 0.75 13.75 L 15.25 13.75 C 15.25 12.644531 14.355469 11.75 13.25 11.75 Z M 13.25 11.75 "/>
</svg>
